<svg xmlns="http://www.w3.org/2000/svg" xmlns:xlink="http://www.w3.org/1999/xlink" width="171.857" height="155.372" viewBox="0 0 171.857 155.372">
  <defs>
    <linearGradient id="linear-gradient" x1="0.5" x2="0.5" y2="1" gradientUnits="objectBoundingBox">
      <stop offset="0" stop-color="#97f2c2"/>
      <stop offset="1" stop-color="#5ebeee"/>
    </linearGradient>
  </defs>
  <g id="Group_257" data-name="Group 257" transform="translate(-109.072 -143)">
    <g id="Group_256" data-name="Group 256" transform="translate(-21.022 76.686)">
      <g id="Group_252" data-name="Group 252">
        <path id="Path_511" data-name="Path 511" d="M284.866,88.778l-3.553-19.762c-22.489,13.483-36.122,24.79-65.29-2.7-34.322,32.345-53.234,9.131-65.116,1.676L147.18,88.778a151.717,151.717,0,0,0-1.576,32.445c.05,1.1.125,2.227.2,3.377h27.117c-.2-2.151-.326-4.252-.4-6.278-.15-3.352-.15-6.5-.076-9.381a76.239,76.239,0,0,0,20.388.125c10.532-1.326,17.986-3.627,23.19-6.029,5.2,2.4,12.657,4.7,23.189,6.029a76.615,76.615,0,0,0,20.438-.125c.075,2.851.075,6.029-.075,9.381-.076,2.026-.225,4.127-.426,6.278h27.092c.075-1.15.15-2.276.2-3.377A151.756,151.756,0,0,0,284.866,88.778Zm-11.858,30.994a141.2,141.2,0,0,0-1.426-28.592s-10.982,6.929-30.694,4.477c-19.712-2.476-24.865-8.53-24.865-8.53s-5.154,6.054-24.866,8.53c-19.712,2.452-30.694-4.477-30.694-4.477a141.2,141.2,0,0,0-1.426,28.592l-5.628.6a142.137,142.137,0,0,1,1.526-30.194l1.475-8.23c20.613,12.558,43.252,12.608,59.913-4.853,16.835,18.486,39.975,16.61,59.287,5.028l1.5,8.055a145.335,145.335,0,0,1,1.551,30.194Zm-24.34,40.275a69.511,69.511,0,0,1-5.4,8.056c-8.029,10.456-18.136,17.961-27.241,23.189-9.106-5.228-19.212-12.733-27.242-23.189a69.511,69.511,0,0,1-5.4-8.056H153.459c.425,1.076.875,2.152,1.326,3.227.175.426.35.826.55,1.226,12.808,28.693,36.723,45.3,54.684,54.209l6,2.977,6-2.977c17.961-8.906,41.876-25.516,54.685-54.209.2-.4.375-.8.55-1.226.45-1.075.9-2.151,1.326-3.227Zm-30.144,51.608-2.5,1.25-2.5-1.25c-15.86-7.88-36.723-22.139-48.981-46.154l6.805.725c12.582,22.139,32.87,34.522,44.678,40.376,11.807-5.854,32.1-18.237,44.677-40.376l6.8-.725C255.247,189.516,234.384,203.775,218.524,211.655Z" fill="url(#linear-gradient)"/>
      </g>
      <g id="Group_253" data-name="Group 253">
        <path id="Path_512" data-name="Path 512" d="M171.345,166.226c12.582,22.139,32.87,34.522,44.678,40.376,11.807-5.854,32.1-18.237,44.677-40.376a67.935,67.935,0,0,0,3.177-6.179H168.168A68.188,68.188,0,0,0,171.345,166.226Z" fill="url(#linear-gradient)"/>
        <path id="Path_513" data-name="Path 513" d="M271.582,91.18s-10.982,6.929-30.694,4.477c-19.712-2.476-24.865-8.53-24.865-8.53s-5.154,6.054-24.866,8.53c-19.712,2.452-30.694-4.477-30.694-4.477a141.2,141.2,0,0,0-1.426,28.592c.075,1.576.175,3.177.3,4.828H272.708c.125-1.651.225-3.252.3-4.828A141.2,141.2,0,0,0,271.582,91.18Z" fill="url(#linear-gradient)"/>
      </g>
      <g id="Group_254" data-name="Group 254" opacity="0.3" style="mix-blend-mode: overlay;isolation: isolate">
        <path id="Path_514" data-name="Path 514" d="M216.414,160.047V206.4c11.858-5.929,31.837-18.272,44.286-40.177a67.935,67.935,0,0,0,3.177-6.179Z" fill="url(#linear-gradient)"/>
        <path id="Path_515" data-name="Path 515" d="M271.582,91.18s-10.982,6.929-30.694,4.477c-16.78-2.108-22.992-6.8-24.474-8.147V124.6h56.294c.125-1.651.225-3.252.3-4.828A141.115,141.115,0,0,0,271.582,91.18Z" fill="url(#linear-gradient)"/>
      </g>
      <g id="Group_255" data-name="Group 255">
        <path id="Path_516" data-name="Path 516" d="M301.951,160.047v1.726L276.711,164.5l-9.206,1-6.8.726-6.979.751L243.264,168.1l-27.242,2.952L188.781,168.1l-10.457-1.126-6.979-.751-6.8-.726-9.206-1-25.241-2.727v-1.726Z" fill="url(#linear-gradient)"/>
        <path id="Path_517" data-name="Path 517" d="M301.951,122.9v1.7H130.094v-1.7l15.51-1.676,7.8-.851,11.257-1.2,7.855-.851,43.5-4.7,43.552,4.7,7.83.851,5.6.6,5.654.6,7.78.851Z" fill="url(#linear-gradient)"/>
      </g>
    </g>
    <text id="DAE" transform="translate(195 231)" fill="#fff" font-size="32" font-family="NexaBold, Nexa"><tspan x="-33" y="0">DAE</tspan></text>
  </g>
</svg>
