<svg xmlns="http://www.w3.org/2000/svg" xmlns:xlink="http://www.w3.org/1999/xlink" width="200" height="543" viewBox="0 0 200 543">
  <defs>
    <clipPath id="clip-path">
      <rect id="Rectangle_584" data-name="Rectangle 584" width="200" height="543" transform="translate(4638 -1601)" fill="#fff" stroke="#707070" stroke-width="1"/>
    </clipPath>
    <linearGradient id="linear-gradient" x1="1" y1="0.5" x2="0" y2="0.5" gradientUnits="objectBoundingBox">
      <stop offset="0" stop-color="#9d9d9d"/>
      <stop offset="1" stop-color="#4f6b61"/>
    </linearGradient>
    <linearGradient id="linear-gradient-2" x1="1" y1="0.5" x2="0" y2="0.5" gradientUnits="objectBoundingBox">
      <stop offset="0" stop-color="#4f615c"/>
      <stop offset="1" stop-color="#25342f"/>
    </linearGradient>
  </defs>
  <g id="right_wing" transform="translate(-4638 1601)" clip-path="url(#clip-path)">
    <g id="Group_251" data-name="Group 251" transform="translate(4600.999 -1592.522)">
      <path id="Path_504" data-name="Path 504" d="M2481.19,17.278s42.639,68.266,93.254,137.816a1161.545,1161.545,0,0,0,104.617,123.487s-47.6.451-98.968,75.112S2484.26,531.8,2484.26,531.8Z" transform="translate(-2447.628 -17.278)" opacity="0.77" fill="url(#linear-gradient)"/>
      <path id="Path_502" data-name="Path 502" d="M2481,0s55.264,102.2,86.608,151.231C2620.57,217.9,2676,259,2676,259s-47.792,20.031-99.161,94.693S2481,531.8,2481,531.8Z" transform="translate(-2444.371 2.722)" fill="url(#linear-gradient-2)"/>
      <path id="Path_505" data-name="Path 505" d="M156.129,160.756S79.881,117.04,39.881,72.116a488.032,488.032,0,0,1-64-92.308" transform="translate(54.119 95.222)" fill="none" stroke="#fff" stroke-linecap="round" stroke-width="1" opacity="0.15"/>
      <path id="Path_510" data-name="Path 510" d="M156.129-20.192S79.881,23.524,39.881,68.448a488.033,488.033,0,0,0-64,92.308" transform="translate(54.119 283.12)" fill="none" stroke="#fff" stroke-linecap="round" stroke-width="1" opacity="0.15"/>
      <path id="Path_506" data-name="Path 506" d="M176.129,145.176s-97.2-28.136-137.2-73.06a488.032,488.032,0,0,1-64-92.308" transform="translate(35.066 112.222)" fill="none" stroke="#fff" stroke-linecap="round" stroke-width="1" opacity="0.15"/>
      <path id="Path_509" data-name="Path 509" d="M176.129-20.192s-97.2,28.136-137.2,73.06a488.032,488.032,0,0,0-64,92.308" transform="translate(35.066 281.7)" fill="none" stroke="#fff" stroke-linecap="round" stroke-width="1" opacity="0.15"/>
      <path id="Path_507" data-name="Path 507" d="M186.129,125.649S79.408,127.04,39.408,82.116a488.033,488.033,0,0,1-64-92.308" transform="translate(24.593 132.222)" fill="none" stroke="#fff" stroke-linecap="round" stroke-width="1" opacity="0.15"/>
      <path id="Path_508" data-name="Path 508" d="M186.129-10.187S79.408-11.577,39.408,33.346a488.031,488.031,0,0,0-64,92.308" transform="translate(24.593 271.222)" fill="none" stroke="#fff" stroke-linecap="round" stroke-width="1" opacity="0.15"/>
    </g>
  </g>
</svg>
